<?xml version="1.0"?>
<svg xmlns="http://www.w3.org/2000/svg" xmlns:xlink="http://www.w3.org/1999/xlink" version="1.1" id="Layer_1" x="0px" y="0px" viewBox="0 0 512 512" style="enable-background:new 0 0 512 512;" xml:space="preserve" width="512px" height="512px"><g><g>
	<g>
		<path d="M484.439,115.324l-64.384,55.186L330.574,51.2c-7.428-9.904-22.742-8.548-28.289,2.551l-89.815,179.63l-83.794-83.794    c-7.211-7.211-19.171-6.325-25.236,1.888L33.391,246.33V16.696C33.391,7.475,25.916,0,16.696,0S0,7.475,0,16.696    c0,17.16,0,463.294,0,478.609C0,504.525,7.475,512,16.696,512h478.609c9.22,0,16.696-7.475,16.696-16.696    c0-2.42,0-360.481,0-367.304C512,113.764,495.246,106.059,484.439,115.324z M478.609,478.609H33.391v-9.112l85.387-115.629    l86.46,86.459c8.044,8.045,21.644,5.851,26.739-4.339l88.093-176.186l83.965,111.954c5.789,7.72,16.907,8.931,24.222,2.659    l50.352-43.159V478.609z M478.609,287.278l-58.553,50.188l-89.482-119.309c-7.428-9.904-22.742-8.548-28.289,2.551l-89.815,179.63    l-83.794-83.794c-3.437-3.437-8.199-5.209-13.052-4.844c-4.847,0.363-9.297,2.82-12.185,6.731l-70.048,94.857V302.54    l85.387-115.629l86.46,86.459c8.045,8.045,21.644,5.851,26.739-4.339L320.07,92.846L404.035,204.8    c5.789,7.72,16.907,8.931,24.222,2.659l50.352-43.159V287.278z" data-original="#000000" class="active-path" data-old_color="#000000" fill="#32C69A"/>
	</g>
</g></g> </svg>
