<?xml version="1.0"?>
<svg xmlns="http://www.w3.org/2000/svg" xmlns:xlink="http://www.w3.org/1999/xlink" version="1.1" id="Capa_1" x="0px" y="0px" width="512px" height="512px" viewBox="0 0 459 459" style="enable-background:new 0 0 459 459;" xml:space="preserve"><g><g>
	<g id="memory">
		<path d="M306,153H153v153h153V153z M255,255h-51v-51h51V255z M459,204v-51h-51v-51c0-28.05-22.95-51-51-51h-51V0h-51v51h-51V0h-51    v51h-51c-28.05,0-51,22.95-51,51v51H0v51h51v51H0v51h51v51c0,28.05,22.95,51,51,51h51v51h51v-51h51v51h51v-51h51    c28.05,0,51-22.95,51-51v-51h51v-51h-51v-51H459z M357,357H102V102h255V357z" data-original="#000000" class="active-path" data-old_color="#000000" fill="#32C69A"/>
	</g>
</g></g> </svg>
