<?xml version="1.0"?>
<svg xmlns="http://www.w3.org/2000/svg" height="512px" viewBox="-111 0 512 512" width="512px"><g><path d="m7.5 123.375c4.140625 0 7.5-3.359375 7.5-7.5v-20.125c0-4.140625-3.359375-7.5-7.5-7.5s-7.5 3.359375-7.5 7.5v20.125c0 4.140625 3.359375 7.5 7.5 7.5zm0 0" data-original="#000000" class="active-path" data-old_color="#000000" fill="#32C69A"/><path d="m243.769531 0h-198.539062c-24.941407 0-45.230469 20.289062-45.230469 45.230469v18.519531c0 4.140625 3.359375 7.5 7.5 7.5s7.5-3.359375 7.5-7.5v-18.519531c0-16.667969 13.5625-30.230469 30.230469-30.230469h198.535156c16.671875 0 30.234375 13.5625 30.234375 30.230469v312.535156c0 16.671875-13.5625 30.234375-30.234375 30.234375h-35.433594c-4.140625 0-7.5 3.355469-7.5 7.5 0 4.140625 3.359375 7.5 7.5 7.5h35.433594c24.941406 0 45.234375-20.292969 45.234375-45.234375v-312.535156c0-24.941407-20.289062-45.230469-45.230469-45.230469zm0 0" data-original="#000000" class="active-path" data-old_color="#000000" fill="#32C69A"/><path d="m58 256c0 47.519531 38.597656 86.5 86.5 86.5 47.523438 0 86.5-38.597656 86.5-86.5 0-45.214844-34.847656-82.367188-79-86.175781v-15.578125c9.011719-3.117188 15.5-11.6875 15.5-21.746094 0-12.679688-10.316406-23-23-23s-23 10.320312-23 23c0 10.058594 6.488281 18.628906 15.5 21.746094v15.578125c-44.171875 3.808593-79 40.976562-79 86.175781zm157.609375-7.5h-29.273437c-1.097657-6.144531-3.523438-11.835938-6.964844-16.765625l20.691406-20.6875c8.476562 10.460937 14.070312 23.351563 15.546875 37.453125zm-15.546875 52.453125-20.691406-20.6875c3.445312-4.929687 5.867187-10.621094 6.964844-16.765625h29.273437c-1.476563 14.101562-7.070313 26.992188-15.546875 37.453125zm-126.671875-37.453125h29.273437c1.097657 6.144531 3.523438 11.835938 6.964844 16.765625l-20.691406 20.6875c-8.476562-10.460937-14.070312-23.351563-15.546875-37.453125zm71.109375-35c15.164062 0 27.5 12.335938 27.5 27.5s-12.335938 27.5-27.5 27.5-27.5-12.335938-27.5-27.5 12.335938-27.5 27.5-27.5zm-24.265625 62.371094c4.929687 3.445312 10.621094 5.867187 16.765625 6.964844v29.273437c-14.101562-1.476563-26.992188-7.070313-37.453125-15.546875zm31.765625 6.964844c6.144531-1.097657 11.835938-3.523438 16.765625-6.964844l20.6875 20.691406c-10.460937 8.476562-23.351563 14.070312-37.453125 15.546875zm16.765625-76.707032c-4.929687-3.445312-10.621094-5.867187-16.765625-6.964844v-29.273437c14.101562 1.476563 26.992188 7.070313 37.453125 15.546875zm-31.765625-6.964844c-6.144531 1.097657-11.835938 3.523438-16.765625 6.964844l-20.6875-20.691406c10.460937-8.476562 23.351563-14.070312 37.453125-15.546875zm-27.371094 17.570313c-3.445312 4.929687-5.867187 10.621094-6.964844 16.765625h-29.273437c1.476563-14.101562 7.070313-26.992188 15.546875-37.453125zm34.871094-107.234375c4.410156 0 8 3.589844 8 8s-3.589844 8-8 8-8-3.589844-8-8 3.589844-8 8-8zm0 0" data-original="#000000" class="active-path" data-old_color="#000000" fill="#32C69A"/><path d="m144.535156 84.941406c-11.433594 0-22.292968 3.660156-31.394531 10.589844-3.296875 2.507812-3.933594 7.214844-1.425781 10.511719 2.507812 3.289062 7.210937 3.9375 10.511718 1.425781 6.46875-4.925781 14.183594-7.527344 22.308594-7.527344 8.101563 0 15.792969 2.585938 22.25 7.480469 3.300782 2.503906 8.003906 1.859375 10.507813-1.441406 2.503906-3.300781 1.855469-8.003907-1.445313-10.507813-9.082031-6.890625-19.910156-10.53125-31.3125-10.53125zm0 0" data-original="#000000" class="active-path" data-old_color="#000000" fill="#32C69A"/><path d="m189.878906 83.097656c2.503906-3.300781 1.859375-8.003906-1.441406-10.507812-12.742188-9.671875-27.925781-14.78125-43.902344-14.78125-16.019531 0-31.226562 5.128906-43.980468 14.839844-3.296876 2.507812-3.9375 7.214843-1.425782 10.511718 2.503906 3.289063 7.210938 3.9375 10.511719 1.425782 10.121094-7.707032 22.1875-11.777344 34.894531-11.777344 12.675782 0 24.722656 4.054687 34.835938 11.730468 3.300781 2.5 8.003906 1.855469 10.507812-1.441406zm0 0" data-original="#000000" class="active-path" data-old_color="#000000" fill="#32C69A"/><path d="m87.03125 60.929688c2.507812 3.296874 7.214844 3.933593 10.511719 1.425781 13.625-10.375 29.875-15.855469 46.992187-15.855469 17.082032 0 33.3125 5.464844 46.929688 15.804688 3.296875 2.507812 8.003906 1.863281 10.507812-1.4375 2.503906-3.296876 1.863282-8.003907-1.4375-10.507813-16.25-12.339844-35.613281-18.859375-56-18.859375-20.425781 0-39.820312 6.539062-56.078125 18.917969-3.296875 2.507812-3.933593 7.214843-1.425781 10.511719zm0 0" data-original="#000000" class="active-path" data-old_color="#000000" fill="#32C69A"/><path d="m269.5 497h-54.5v-9.777344c0-20.800781-16.921875-37.722656-37.722656-37.722656h-9.277344v-46.5h8.5c4.140625 0 7.5-3.359375 7.5-7.5s-3.359375-7.5-7.5-7.5h-131.269531c-16.667969 0-30.230469-13.5625-30.230469-30.230469v-209.894531c0-4.140625-3.359375-7.5-7.5-7.5s-7.5 3.359375-7.5 7.5v209.894531c0 24.941407 20.289062 45.230469 45.230469 45.230469h75.769531v46.5h-9.277344c-20.800781 0-37.722656 16.921875-37.722656 37.722656v9.777344h-54.5c-4.140625 0-7.5 3.359375-7.5 7.5s3.359375 7.5 7.5 7.5h250c4.140625 0 7.5-3.359375 7.5-7.5s-3.359375-7.5-7.5-7.5zm-133.5-94h17v46.5h-17zm-47 94v-9.777344c0-12.527344 10.191406-22.722656 22.722656-22.722656h65.554688c12.53125 0 22.722656 10.191406 22.722656 22.722656v9.777344zm0 0" data-original="#000000" class="active-path" data-old_color="#000000" fill="#32C69A"/></g> </svg>
