<?xml version="1.0"?>
<svg xmlns="http://www.w3.org/2000/svg" xmlns:xlink="http://www.w3.org/1999/xlink" version="1.1" id="Capa_1" x="0px" y="0px" viewBox="0 0 512 512" style="enable-background:new 0 0 512 512;" xml:space="preserve" width="512px" height="512px" class=""><g><path style="fill:#D4F582;" d="M386.955,147.095c-10.516,10.516-27.566,10.516-38.082,0s-10.516-27.566,0-38.082  c20.196-20.196,59.433-21.351,59.433-21.351S407.151,126.898,386.955,147.095z" data-original="#D4F582" class=""/><path style="fill:#BEE86E;" d="M408.306,87.661c0,0-39.237,1.155-59.433,21.351c-10.516,10.516-10.516,27.566,0,38.082  L408.306,87.661z" data-original="#BEE86E" class=""/><path style="fill:#D4F582;" d="M155.111,141.077c10.516,10.516,10.516,27.566,0,38.082s-27.566,10.516-38.082,0  c-20.196-20.196-21.351-59.433-21.351-59.433S134.915,120.881,155.111,141.077z" data-original="#D4F582" class=""/><path style="fill:#BEE86E;" d="M95.677,119.726c0,0,1.155,39.237,21.351,59.433c10.516,10.516,27.566,10.516,38.082,0  L95.677,119.726z" data-original="#BEE86E" class=""/><ellipse style="fill:#FF8087;" cx="143.77" cy="312.11" rx="56.11" ry="48.1" data-original="#FF8087" class=""/><g>
	<path style="fill:#E6646E;" d="M167.823,336.161c-30.99,0-56.113-21.534-56.113-48.097c0-6.181,1.41-12.07,3.888-17.499   c-16.688,8.335-27.936,23.798-27.936,41.547c0,26.563,25.123,48.097,56.113,48.097c23.779,0,44.054-12.698,52.225-30.598   C187.712,333.75,178.106,336.161,167.823,336.161z" data-original="#E6646E" class=""/>
	<circle style="fill:#E6646E;" cx="271.86" cy="103.69" r="16.03" data-original="#E6646E" class=""/>
</g><ellipse style="fill:#FF8087;" cx="336.16" cy="264.02" rx="56.11" ry="48.1" data-original="#FF8087" class=""/><path style="fill:#E6646E;" d="M360.21,288.065c-30.99,0-56.113-21.534-56.113-48.097c0-6.181,1.41-12.07,3.888-17.499  c-16.688,8.335-27.936,23.798-27.936,41.547c0,26.563,25.123,48.097,56.113,48.097c23.779,0,44.054-12.698,52.225-30.598  C380.099,285.653,370.493,288.065,360.21,288.065z" data-original="#E6646E" class=""/><path style="fill:#DCA587;" d="M295.012,456.781c-24.693-11.192-53.33-11.192-78.023,0L111.71,504.5h288.58L295.012,456.781z" data-original="#DCA587"/><path style="fill:#CD9178;" d="M216.988,456.781L111.71,504.5h88.177l75.432-54.103  C255.854,446.356,235.334,448.466,216.988,456.781z" data-original="#CD9178" class=""/><path d="M432.355,497h-30.444l-103.803-47.05c-6.022-2.73-12.245-4.839-18.576-6.341V289.293  c10.55,17.979,31.965,30.319,56.629,30.319c35.077,0,63.613-24.94,63.613-55.597c0-10.292-3.234-20.341-9.354-29.062  c-2.379-3.391-7.056-4.211-10.447-1.831c-3.391,2.379-4.21,7.057-1.831,10.447c4.338,6.183,6.632,13.253,6.632,20.446  c0,22.385-21.808,40.597-48.613,40.597s-48.613-18.211-48.613-40.597s21.808-40.597,48.613-40.597  c7.433,0,14.567,1.369,21.203,4.067c3.837,1.56,8.212-0.285,9.773-4.122s-0.285-8.212-4.122-9.773  c-3.435-1.397-6.973-2.499-10.589-3.332l5.07-5.07c2.929-2.929,2.929-7.678,0-10.606c-2.929-2.929-7.678-2.929-10.606,0l-3.28,3.28  c-0.353-9.803-3.243-18.969-8.051-26.849l13.897-13.897c5.467,3.487,11.817,5.364,18.458,5.364c9.196,0,17.842-3.582,24.344-10.084  c22.049-22.048,23.494-62.792,23.545-64.516c0.061-2.065-0.732-4.063-2.193-5.524s-3.468-2.254-5.524-2.193  c-1.724,0.051-42.468,1.496-64.516,23.544c-6.503,6.502-10.084,15.148-10.084,24.344c0,6.641,1.877,12.991,5.364,18.458  l-12.817,12.817c-9.946-9.316-23.298-15.038-37.969-15.038c-2.901,0-5.75,0.225-8.532,0.656v-18.953  c9.308-3.139,16.032-11.946,16.032-22.3c0-12.976-10.557-23.532-23.532-23.532S248.5,90.718,248.5,103.693  c0,10.354,6.724,19.16,16.032,22.3v23.539c-6.462,3.032-12.245,7.271-17.064,12.426v-18.184c0-4.142-3.358-7.5-7.5-7.5  s-7.5,3.358-7.5,7.5v66.281c-10.154-10.861-24.591-17.668-40.597-17.668c-4.007,0-7.912,0.436-11.681,1.245l-15.062-15.062  c8.453-13.309,6.887-31.195-4.715-42.797c-22.048-22.049-62.792-23.494-64.516-23.545c-2.059-0.075-4.063,0.732-5.524,2.193  c-1.461,1.46-2.254,3.459-2.193,5.524c0.051,1.724,1.496,42.468,23.544,64.516c6.712,6.712,15.528,10.068,24.344,10.068  c6.424,0,12.843-1.791,18.453-5.354l10.274,10.274c-16.446,9.211-27.751,26.531-28.47,46.511l-3.281-3.281  c-2.929-2.93-7.678-2.929-10.606,0c-2.929,2.929-2.929,7.678,0,10.606l5.077,5.077c-27.224,6.296-47.354,28.003-47.354,53.749  c0,30.656,28.537,55.597,63.613,55.597s63.613-24.94,63.613-55.597c0-10.292-3.234-20.341-9.354-29.062  c-2.379-3.39-7.056-4.211-10.447-1.831c-3.391,2.379-4.21,7.057-1.831,10.447c4.338,6.183,6.632,13.253,6.632,20.445  c0,22.385-21.808,40.597-48.613,40.597c-26.806,0-48.613-18.211-48.613-40.597s21.808-40.597,48.613-40.597  c7.433,0,14.566,1.369,21.202,4.067c3.835,1.561,8.212-0.284,9.773-4.122c1.561-3.837-0.285-8.212-4.122-9.773  c-3.435-1.397-6.973-2.499-10.588-3.332l5.07-5.07c2.929-2.929,2.929-7.678,0-10.606c-2.929-2.929-7.678-2.929-10.606,0  l-3.173,3.173c1.112-21.399,18.87-38.466,40.54-38.466c22.385,0,40.597,18.211,40.597,40.597V443.61  c-6.331,1.501-12.554,3.611-18.576,6.341L110.089,497H79.645c-4.142,0-7.5,3.358-7.5,7.5s3.358,7.5,7.5,7.5h352.71  c4.142,0,7.5-3.358,7.5-7.5S436.497,497,432.355,497z M272.032,95.161c4.705,0,8.532,3.828,8.532,8.532s-3.828,8.532-8.532,8.532  s-8.532-3.828-8.532-8.532S267.328,95.161,272.032,95.161z M122.332,173.856c-12.48-12.48-16.871-33.987-18.386-45.861  c11.878,1.515,33.383,5.907,45.862,18.386c5.696,5.696,7.106,14.077,4.236,21.105l-12.982-12.982c-2.929-2.929-7.678-2.929-10.606,0  c-2.929,2.929-2.929,7.678,0,10.606l12.982,12.982C136.409,180.962,128.028,179.552,122.332,173.856z M247.468,287.548h17.064  v65.161h-17.064L247.468,287.548L247.468,287.548z M354.176,114.315c12.48-12.48,33.987-16.871,45.861-18.386  c-1.515,11.878-5.907,33.383-18.386,45.862c-3.669,3.669-8.548,5.69-13.738,5.69c-2.572,0-5.066-0.499-7.375-1.447l12.99-12.99  c2.929-2.929,2.929-7.678,0-10.606c-2.929-2.929-7.678-2.929-10.606,0l-12.982,12.983  C347.07,128.393,348.48,120.011,354.176,114.315z M247.468,199.887c0-22.385,18.211-40.597,40.597-40.597  c21.67,0,39.428,17.067,40.54,38.466l-3.173-3.173c-2.929-2.929-7.678-2.929-10.606,0c-2.929,2.929-2.929,7.678,0,10.606  l5.077,5.077c-17.602,4.071-32.224,14.588-40.37,28.472V191.87c0-4.142-3.358-7.5-7.5-7.5s-7.5,3.358-7.5,7.5v80.677h-17.064v-72.66  H247.468z M247.468,367.709h17.064v73.506c-5.678-0.476-11.386-0.476-17.064,0L247.468,367.709L247.468,367.709z M220.084,463.612  c22.825-10.346,49.006-10.346,71.831,0L365.577,497H146.423L220.084,463.612z" data-original="#000000" class="active-path" style="fill:#32C69A" data-old_color="#000000"/><path d="M227.218,58.712c-2.929,2.929-2.929,7.678,0,10.606c2.929,2.929,7.678,2.929,10.606,0  c9.182-9.182,21.389-14.238,34.375-14.238c12.985,0,25.192,5.057,34.375,14.238c1.464,1.464,3.384,2.197,5.303,2.197  s3.839-0.732,5.303-2.197c2.929-2.929,2.929-7.678,0-10.606c-12.015-12.015-27.99-18.632-44.981-18.632  C255.208,40.081,239.233,46.697,227.218,58.712z" data-original="#000000" class="active-path" style="fill:#32C69A" data-old_color="#000000"/><path d="M209.483,40.978C226.235,24.226,248.508,15,272.199,15s45.964,9.226,62.716,25.978c1.464,1.464,3.384,2.197,5.303,2.197  s3.839-0.732,5.303-2.197c2.929-2.929,2.929-7.678,0-10.606C325.937,10.786,299.896,0,272.199,0s-53.737,10.786-73.322,30.371  c-2.929,2.929-2.929,7.678,0,10.606C201.806,43.906,206.555,43.906,209.483,40.978z" data-original="#000000" class="active-path" style="fill:#32C69A" data-old_color="#000000"/></g> </svg>
